<svg width="144" height="144" viewBox="0 0 144 144" fill="none" xmlns="http://www.w3.org/2000/svg">
<g clip-path="url(#clip0_13_420)">
<path d="M31.2706 34L34.6457 31.5829C34.9237 31.3824 34.8305 30.9437 34.4949 30.8736L30.4285 30.0382C30.3322 30.0167 30.2452 29.9606 30.1864 29.8814L27.769 26.5082C27.5679 26.2303 27.1298 26.3234 27.0592 26.6591L26.2228 30.7239C26.2013 30.8202 26.1445 30.9068 26.0653 30.9656L22.6903 33.3828C22.4123 33.5833 22.5055 34.022 22.8411 34.092L26.9075 34.9275C27.0036 34.9484 27.0908 35.005 27.1496 35.0842L29.5669 38.4569C29.768 38.7354 30.2062 38.6422 30.2767 38.306L31.1132 34.2418C31.1347 34.1455 31.1874 34.0592 31.2706 34Z" fill="#222222"/>
<path d="M16.6593 50.2282C16.6754 50.304 16.6841 50.3809 16.6851 50.4582C16.6863 50.536 16.6795 50.6126 16.6655 50.6889C16.6516 50.7652 16.6301 50.8396 16.601 50.9115C16.5726 50.9838 16.5369 51.0523 16.4946 51.1175C16.4522 51.1827 16.404 51.2427 16.3496 51.2986C16.2957 51.3538 16.2365 51.4037 16.1724 51.4475C16.1085 51.4918 16.0412 51.5286 15.9697 51.5598C15.8981 51.5904 15.825 51.6136 15.7485 51.6299C15.6727 51.646 15.5958 51.6546 15.5186 51.6557C15.4406 51.6563 15.3636 51.6502 15.2877 51.6355C15.2114 51.6216 15.137 51.6001 15.0647 51.5717C14.9928 51.5426 14.9244 51.5075 14.8592 51.4651C14.794 51.4228 14.7335 51.3747 14.6781 51.3202C14.6223 51.2664 14.5725 51.2072 14.5287 51.1431C14.4849 51.0791 14.4475 51.0119 14.4169 50.9403C14.3859 50.8694 14.3625 50.7956 14.3464 50.7198C14.3303 50.6439 14.3216 50.5671 14.321 50.4891C14.32 50.4118 14.3267 50.3347 14.3406 50.2584C14.3547 50.1826 14.3761 50.1082 14.4051 50.0358C14.4337 49.9641 14.4694 49.8955 14.5117 49.8303C14.5541 49.7651 14.6023 49.7052 14.6561 49.6494C14.7106 49.594 14.7698 49.5442 14.8337 49.4998C14.8972 49.4561 14.965 49.4187 15.0366 49.3881C15.1076 49.3576 15.1813 49.3342 15.2572 49.3181C15.3336 49.3018 15.4099 49.2933 15.4877 49.2922C15.5656 49.291 15.6421 49.2978 15.7185 49.3117C15.7949 49.3263 15.8693 49.3477 15.941 49.3763C16.0135 49.4052 16.0819 49.4404 16.1471 49.4827C16.2123 49.5251 16.2728 49.5732 16.328 49.6271C16.384 49.6815 16.4338 49.7407 16.4775 49.8042C16.5213 49.8682 16.5587 49.936 16.5892 50.007C16.6198 50.0786 16.6432 50.1523 16.6593 50.2282Z" fill="#222222"/>
<mask id="mask0_13_420" style="mask-type:luminance" maskUnits="userSpaceOnUse" x="106" y="22" width="10" height="10">
<path d="M106.691 23.5811L113.992 22.0292L115.625 29.7095L108.324 31.2614L106.691 23.5811Z" fill="white"/>
</mask>
<g mask="url(#mask0_13_420)">
<path d="M112.92 27.5551L114.978 26.0806C115.148 25.957 115.091 25.6898 114.887 25.6498L112.407 25.1397C112.346 25.1279 112.293 25.093 112.261 25.0458L110.787 22.9887C110.663 22.8191 110.396 22.8759 110.356 23.0802L109.845 25.5595C109.833 25.62 109.798 25.6735 109.751 25.7043L107.693 27.1789C107.523 27.3025 107.58 27.5697 107.784 27.6097L110.264 28.1196C110.325 28.1316 110.378 28.1664 110.409 28.2137L111.884 30.2709C112.008 30.4404 112.275 30.3836 112.315 30.1793L112.827 27.704C112.839 27.6434 112.873 27.59 112.92 27.5551Z" fill="#222222"/>
</g>
<path d="M92.2322 22.8792C92.2528 22.976 92.2688 23.0738 92.2798 23.1726C92.2906 23.2709 92.2969 23.3701 92.2979 23.4693C92.2994 23.5684 92.2956 23.6674 92.2876 23.7662C92.279 23.865 92.2656 23.9631 92.2472 24.0605C92.2294 24.1578 92.2068 24.2543 92.1791 24.3495C92.1514 24.4447 92.1193 24.5385 92.0827 24.6309C92.0454 24.7228 92.0043 24.8132 91.9591 24.9009C91.9132 24.9888 91.8634 25.0745 91.8095 25.1575C91.7557 25.2412 91.6976 25.3215 91.6353 25.3987C91.5737 25.4762 91.5079 25.5506 91.4389 25.6215C91.3694 25.6924 91.2968 25.7599 91.2211 25.824C91.1453 25.888 91.0664 25.9479 90.9848 26.0037C90.9027 26.0602 90.8186 26.1124 90.7316 26.1599C90.6448 26.2079 90.5559 26.2517 90.4648 26.2906C90.3732 26.3302 90.2805 26.3646 90.1863 26.3947C90.0915 26.4244 89.9958 26.45 89.8984 26.4707C89.8016 26.4913 89.7037 26.5068 89.605 26.5183C89.5067 26.5291 89.4075 26.5354 89.3083 26.5364C89.2092 26.5379 89.1102 26.5341 89.0114 26.5256C88.9126 26.5176 88.8145 26.5041 88.7167 26.4864C88.6193 26.4681 88.5228 26.4454 88.4276 26.4177C88.3324 26.39 88.2386 26.3579 88.1462 26.3213C88.0544 26.2847 87.964 26.2435 87.8762 26.1977C87.7879 26.1526 87.7021 26.1028 87.619 26.0483C87.5359 25.9943 87.4555 25.9363 87.378 25.8747C87.3004 25.8131 87.226 25.7472 87.1552 25.6783C87.0842 25.6088 87.0167 25.5361 86.9527 25.4604C86.8887 25.3847 86.8287 25.3057 86.7723 25.2242C86.7165 25.1426 86.6643 25.0584 86.6163 24.9716C86.5688 24.8847 86.5251 24.7958 86.4862 24.7047C86.4467 24.6136 86.4121 24.5204 86.382 24.4262C86.3518 24.3315 86.3267 24.2357 86.3061 24.1389C86.2856 24.0421 86.2695 23.9443 86.2586 23.8455C86.2477 23.7472 86.2414 23.648 86.2405 23.5488C86.2389 23.4497 86.2427 23.3507 86.2507 23.2519C86.2593 23.1531 86.2728 23.055 86.2906 22.9577C86.3089 22.8603 86.3316 22.7638 86.3593 22.6686C86.3869 22.5734 86.4191 22.4796 86.4558 22.3878C86.4923 22.2954 86.5336 22.2056 86.5793 22.1172C86.6251 22.0293 86.6749 21.9436 86.7289 21.8606C86.7828 21.7775 86.8408 21.6971 86.903 21.6194C86.9646 21.5418 87.0305 21.4675 87.0994 21.3966C87.1689 21.3257 87.2415 21.2582 87.3173 21.1941C87.393 21.1301 87.472 21.0702 87.5536 21.0144C87.6356 20.9579 87.7198 20.9057 87.8067 20.8582C87.8935 20.8102 87.9825 20.7664 88.0736 20.7275C88.1647 20.6886 88.2578 20.6534 88.3521 20.6239C88.4469 20.5937 88.5426 20.5681 88.6394 20.5475C88.7367 20.5268 88.8346 20.5113 88.9335 20.5004C89.0316 20.489 89.1304 20.4834 89.23 20.4817C89.3291 20.4802 89.4281 20.484 89.527 20.4925C89.6257 20.5005 89.7238 20.514 89.8218 20.5322C89.919 20.55 90.0155 20.5727 90.1108 20.6004C90.206 20.6281 90.2998 20.6602 90.3922 20.6967C90.484 20.7334 90.5744 20.7746 90.6622 20.8204C90.7506 20.8661 90.8363 20.9159 90.9194 20.9698C91.0024 21.0238 91.0828 21.0818 91.1604 21.1434C91.2375 21.2057 91.3123 21.2709 91.3833 21.3404C91.4541 21.4093 91.5216 21.482 91.5857 21.5577C91.6497 21.6334 91.7097 21.7124 91.7655 21.794C91.8218 21.8755 91.874 21.9597 91.9221 22.0465C91.9695 22.1334 92.0133 22.2223 92.0522 22.3134C92.0916 22.4045 92.1262 22.4977 92.1563 22.5919C92.1865 22.6866 92.2116 22.7824 92.2322 22.8792Z" fill="#222222"/>
<path d="M94.6046 32.0813L69.6765 37.3799L65.6769 18.563C65.128 15.9807 62.5797 14.3268 59.9957 14.876L54.3328 16.0797C51.7488 16.629 50.0935 19.1763 50.6424 21.7587L54.6429 40.5796L29.7149 45.8782C24.6062 46.964 21.3296 52.0013 22.4157 57.1111L22.9987 59.8537C23.54 62.4004 26.054 64.032 28.6023 63.4903L30.0741 63.1775L52.8798 129.545C54.0826 133.047 57.7259 135.11 61.3509 134.339L101.685 125.766C105.31 124.995 107.799 121.629 107.474 117.941L101.314 48.0351L102.785 47.7222C105.334 47.1806 106.967 44.6675 106.425 42.1208L105.842 39.3782C104.752 34.2693 99.7132 30.9954 94.6046 32.0813ZM53.6335 21.1229C53.4319 20.1748 54.019 19.2708 54.9682 19.069L60.6311 17.8654C61.5803 17.6636 62.4843 18.2506 62.6858 19.1988L66.6863 38.0196L57.6339 39.9438L53.6335 21.1229ZM100.801 78.3298C100.86 80.0963 100.021 81.6993 98.6214 82.7462C92.5325 87.0028 85.0368 87.7417 76.3718 84.9972C82.8762 76.5162 89.5135 72.4851 96.13 73.1406C98.8164 73.4067 100.712 75.6952 100.801 78.3298ZM73.2271 84.0866C70.9487 83.4461 68.767 82.9686 66.7152 82.6676L61.1684 56.5723L70.2208 54.6482L75.7869 80.8346C74.9294 81.838 74.0748 82.9361 73.2271 84.0866ZM63.5156 82.3223C52.3075 81.4975 44.9874 85.2779 41.6851 87.5666L33.0849 62.5375L58.1726 57.2049L63.5116 82.3232L63.5156 82.3223ZM104.431 118.213C104.622 120.368 103.168 122.33 101.054 122.78L60.7164 131.354C58.6027 131.803 56.476 130.601 55.7742 128.555L42.7063 90.5284C45.3979 88.4648 55.7281 81.9613 73.4344 87.2965C73.9069 87.4209 74.3847 87.5731 74.8675 87.7456C81.5569 89.9605 87.0785 90.0322 91.509 89.0905C95.2574 88.2937 98.223 86.7724 100.453 85.2027C100.825 84.9361 101.121 84.6022 101.437 84.2854L104.431 118.213ZM100.325 71.6407C99.1904 70.8323 97.8902 70.2461 96.4343 70.1017C90.2394 69.4898 84.1762 72.1612 78.3197 78.0427L73.211 54.0084L98.2987 48.6759L100.325 71.6407ZM103.43 42.7574C103.622 43.658 103.047 44.5422 102.146 44.7337L27.9669 60.5009C27.0658 60.6925 26.1803 60.1145 25.9897 59.2179L25.4068 56.4754C24.6714 53.0156 26.8883 49.6034 30.3503 48.8675L95.2368 35.0755C98.6983 34.3397 102.112 36.5551 102.847 40.0149L103.43 42.7574Z" fill="#222222"/>
<path d="M58.808 96.6874C55.3308 97.4265 53.1039 100.853 53.8427 104.329C54.5806 107.801 58.0087 110.025 61.486 109.286C64.9593 108.548 67.1861 105.121 66.4482 101.649C65.7095 98.1739 62.2814 95.9491 58.808 96.6874ZM60.8497 106.293C59.0236 106.681 57.2201 105.511 56.8329 103.689C56.4449 101.864 57.6165 100.061 59.4426 99.6728C61.2693 99.2845 63.0689 100.456 63.4569 102.281C63.8449 104.107 62.6724 105.905 60.8497 106.293Z" fill="#222222"/>
<path d="M89.6024 95.1612C86.1251 95.9003 83.8984 99.3277 84.6363 102.799C85.375 106.275 88.8031 108.5 92.2804 107.761C95.7543 107.022 97.9811 103.595 97.2424 100.12C96.5045 96.6482 93.0762 94.4228 89.6024 95.1612ZM91.645 104.771C89.8189 105.159 88.0154 103.989 87.6273 102.164C87.2393 100.338 88.4117 98.5387 90.2378 98.1506C92.0644 97.7623 93.8641 98.934 94.2513 100.756C94.6394 102.581 93.4677 104.384 91.645 104.771Z" fill="#222222"/>
<path d="M74.8917 107.449C71.4184 108.187 69.1916 111.614 69.9295 115.086C70.6674 118.557 74.0956 120.783 77.569 120.044C81.0428 119.306 83.269 115.879 82.5311 112.407C81.7932 108.935 78.3656 106.711 74.8917 107.449ZM76.9344 117.059C75.1083 117.447 73.3086 116.275 72.9214 114.454C72.5343 112.633 73.7058 110.83 75.528 110.442C77.3507 110.055 79.1544 111.226 79.5414 113.047C79.9286 114.868 78.7571 116.672 76.9344 117.059Z" fill="#222222"/>
<path d="M113.404 27.3704L116.123 25.572C116.348 25.4224 116.281 25.1078 116.015 25.0623L112.799 24.5254C112.723 24.5115 112.655 24.4724 112.61 24.416L110.744 22.0213C110.59 21.824 110.24 21.8984 110.178 22.1416L109.448 25.088C109.43 25.1578 109.384 25.2214 109.32 25.2649L106.601 27.0634C106.377 27.213 106.444 27.5275 106.709 27.5731L109.925 28.11C110.001 28.124 110.069 28.163 110.114 28.2195L111.979 30.6142C112.135 30.812 112.484 30.7376 112.545 30.4939L113.275 27.5475C113.294 27.4775 113.337 27.4147 113.404 27.3704Z" fill="#222222"/>
</g>
<defs>
<clipPath id="clip0_13_420">
<rect width="120" height="120" fill="white" transform="translate(0.836426 25.7859) rotate(-12)"/>
</clipPath>
</defs>
</svg>
