<svg width="20" height="20" viewBox="0 0 20 20" fill="none" xmlns="http://www.w3.org/2000/svg">
<path d="M17.9999 8.50002H10.1666V11.5834H14.7499C14.6666 12.3334 14.1666 13.5 13.0833 14.25C12.4166 14.75 11.4166 15.0834 10.1666 15.0834C7.99992 15.0834 6.08325 13.6667 5.41659 11.5834C5.24992 11.0834 5.16659 10.5 5.16659 9.91669C5.16659 9.33335 5.24992 8.75002 5.41659 8.25002C5.49992 8.08335 5.49992 7.91669 5.58325 7.83335C6.33325 6.08335 8.08325 4.83335 10.1666 4.83335C11.7499 4.83335 12.7499 5.50002 13.4166 6.08335L15.7499 3.75002C14.3333 2.50002 12.4166 1.66669 10.1666 1.66669C6.91659 1.66669 4.08325 3.50002 2.74992 6.25002C2.16659 7.41669 1.83325 8.66669 1.83325 10C1.83325 11.3334 2.16659 12.5834 2.74992 13.75C4.08325 16.5 6.91659 18.3334 10.1666 18.3334C12.4166 18.3334 14.3333 17.5834 15.6666 16.3334C17.2499 14.9167 18.1666 12.75 18.1666 10.1667C18.1666 9.50002 18.0833 9.00002 17.9999 8.50002Z" stroke="#222222" stroke-width="1.5" stroke-miterlimit="10" stroke-linecap="round" stroke-linejoin="round"/>
</svg>
