<svg width="56" height="56" viewBox="0 0 56 56" fill="none" xmlns="http://www.w3.org/2000/svg">
<path d="M28.0003 4.66675C15.1437 4.66675 4.66699 15.1434 4.66699 28.0001C4.66699 40.8568 15.1437 51.3334 28.0003 51.3334C40.857 51.3334 51.3337 40.8568 51.3337 28.0001C51.3337 15.1434 40.857 4.66675 28.0003 4.66675ZM37.3337 29.7501H29.7503V37.3334C29.7503 38.2901 28.957 39.0834 28.0003 39.0834C27.0437 39.0834 26.2503 38.2901 26.2503 37.3334V29.7501H18.667C17.7103 29.7501 16.917 28.9567 16.917 28.0001C16.917 27.0434 17.7103 26.2501 18.667 26.2501H26.2503V18.6667C26.2503 17.7101 27.0437 16.9167 28.0003 16.9167C28.957 16.9167 29.7503 17.7101 29.7503 18.6667V26.2501H37.3337C38.2903 26.2501 39.0837 27.0434 39.0837 28.0001C39.0837 28.9567 38.2903 29.7501 37.3337 29.7501Z" fill="#222222"/>
</svg>
