<svg width="43" height="43" viewBox="0 0 43 43" fill="none" xmlns="http://www.w3.org/2000/svg">
<path d="M30.3416 12.6756C25.6358 7.62927 17.7211 7.35288 12.6747 12.0587C7.62839 16.7645 7.352 24.6792 12.0578 29.7256C16.7636 34.7719 24.6783 35.0483 29.7247 30.3425C34.771 25.6367 35.0474 17.722 30.3416 12.6756ZM25.3736 26.2814C24.9988 26.631 24.3981 26.61 24.0486 26.2352C23.6991 25.8603 23.7201 25.2597 24.0949 24.9101L26.8558 22.3356L13.2169 21.8593C12.9519 21.8501 12.7259 21.736 12.564 21.5623C12.402 21.3886 12.304 21.1553 12.3133 20.8903C12.3311 20.3779 12.77 19.9687 13.2823 19.9866L26.9211 20.4629L24.3466 17.702C23.9971 17.3272 24.0181 16.7266 24.3929 16.377C24.7677 16.0275 25.3684 16.0485 25.7179 16.4233L29.8355 20.8388C30.185 21.2137 30.164 21.8143 29.7892 22.1639L25.3736 26.2814Z" fill="#222222"/>
</svg>
