<svg width="45" height="45" viewBox="0 0 45 45" fill="none" xmlns="http://www.w3.org/2000/svg">
<path d="M32.2498 23.2501C27.281 23.2501 23.2498 27.2813 23.2498 32.2501C23.2498 33.9376 23.7185 35.5313 24.5623 36.8813C26.1185 39.4876 28.9685 41.2501 32.2498 41.2501C35.531 41.2501 38.3998 39.4876 39.9373 36.8813C40.7623 35.5313 41.2498 33.9376 41.2498 32.2501C41.2498 27.2813 37.2185 23.2501 32.2498 23.2501ZM36.7123 31.0688L31.9123 35.4938C31.6498 35.7376 31.2935 35.8688 30.956 35.8688C30.5998 35.8688 30.2435 35.7376 29.9623 35.4563L27.7498 33.2438C27.206 32.7001 27.206 31.8001 27.7498 31.2563C28.2935 30.7126 29.1935 30.7126 29.7373 31.2563L30.9935 32.5126L34.7998 28.9876C35.3623 28.4626 36.2623 28.5001 36.7873 29.0626C37.3123 29.6438 37.2748 30.5438 36.7123 31.0688Z" fill="#222222"/>
<path d="M41.25 16.3688C41.25 18.6 40.8937 20.6625 40.275 22.575C40.1625 22.9688 39.6937 23.0813 39.3563 22.8375C37.3125 21.3188 34.8188 20.5125 32.25 20.5125C25.7438 20.5125 20.4375 25.8188 20.4375 32.325C20.4375 34.35 20.9625 36.3375 21.9562 38.1C22.2563 38.625 21.9 39.3 21.3375 39.0938C16.8188 37.5563 7.6875 31.95 4.725 22.575C4.10625 20.6625 3.75 18.6 3.75 16.3688C3.75 10.575 8.41875 5.88751 14.175 5.88751C17.5687 5.88751 20.6063 7.53751 22.5 10.0688C24.3937 7.53751 27.4313 5.88751 30.825 5.88751C36.5812 5.88751 41.25 10.575 41.25 16.3688Z" fill="#222222"/>
</svg>
