<svg width="35" height="35" viewBox="0 0 35 35" fill="none" xmlns="http://www.w3.org/2000/svg">
<path fill-rule="evenodd" clip-rule="evenodd" d="M17.5 2.04284L16.9934 5.23068C16.0003 11.4802 9.90128 16.4716 2.00348 17.5C9.90128 18.5284 16.0003 23.5198 16.9934 29.7693L17.5 32.9572L18.0066 29.7693C18.9997 23.5198 25.0987 18.5284 32.9965 17.5C25.0987 16.4716 18.9997 11.4802 18.0066 5.23067L17.5 2.04284ZM16.3638 5.16876L17.1852 0L17.8148 1.67342e-08L18.6362 5.16876C19.595 11.2027 25.4866 16.0211 33.114 17.0094L35 17.2538V17.7462L33.114 17.9906C25.4866 18.9789 19.595 23.7973 18.6362 29.8312L17.8148 35H17.1852L16.3638 29.8312C15.405 23.7973 9.51338 18.9789 1.88596 17.9906L3.54548e-07 17.7462L0 17.2538L1.88596 17.0094C9.51338 16.0211 15.405 11.2027 16.3638 5.16876Z" fill="#FEFCEB"/>
</svg>
