<svg width="45" height="45" viewBox="0 0 45 45" fill="none" xmlns="http://www.w3.org/2000/svg">
<path d="M28.8562 9.76878L31.5 15.0563C31.8562 15.7875 32.8125 16.4813 33.6187 16.6313L38.4 17.4188C41.4562 17.925 42.1687 20.1375 39.975 22.35L36.2437 26.0813C35.625 26.7 35.2687 27.9188 35.475 28.8L36.5437 33.4125C37.3875 37.05 35.4375 38.475 32.2312 36.5625L27.75 33.9C26.9437 33.4125 25.5937 33.4125 24.7875 33.9L20.3062 36.5625C17.1 38.4563 15.15 37.05 15.9937 33.4125L17.0625 28.8C17.2312 27.9 16.875 26.6813 16.2562 26.0625L12.525 22.3313C10.3312 20.1375 11.0437 17.925 14.1 17.4L18.8812 16.6125C19.6875 16.4813 20.6437 15.7688 21 15.0375L23.6437 9.75003C25.0875 6.90003 27.4125 6.90003 28.8562 9.76878Z" fill="#222222"/>
<path d="M15 10.7812H3.75C2.98125 10.7812 2.34375 10.1437 2.34375 9.375C2.34375 8.60625 2.98125 7.96875 3.75 7.96875H15C15.7688 7.96875 16.4062 8.60625 16.4062 9.375C16.4062 10.1437 15.7688 10.7812 15 10.7812Z" fill="#222222"/>
<path d="M9.375 37.0312H3.75C2.98125 37.0312 2.34375 36.3937 2.34375 35.625C2.34375 34.8562 2.98125 34.2188 3.75 34.2188H9.375C10.1438 34.2188 10.7812 34.8562 10.7812 35.625C10.7812 36.3937 10.1438 37.0312 9.375 37.0312Z" fill="#222222"/>
<path d="M5.625 23.9062H3.75C2.98125 23.9062 2.34375 23.2687 2.34375 22.5C2.34375 21.7312 2.98125 21.0938 3.75 21.0938H5.625C6.39375 21.0938 7.03125 21.7312 7.03125 22.5C7.03125 23.2687 6.39375 23.9062 5.625 23.9062Z" fill="#222222"/>
</svg>
