<svg width="35" height="35" viewBox="0 0 35 35" fill="none" xmlns="http://www.w3.org/2000/svg">
<path d="M17.4999 2.91669C25.5499 2.91669 32.0833 9.45002 32.0833 17.5C32.0833 25.55 25.5499 32.0834 17.4999 32.0834C9.44992 32.0834 2.91659 25.55 2.91659 17.5C2.91659 9.45002 9.44992 2.91669 17.4999 2.91669ZM12.3958 18.5938H19.9645L17.4562 21.1021C17.0333 21.525 17.0333 22.225 17.4562 22.6479C17.6749 22.8667 17.952 22.9688 18.2291 22.9688C18.5062 22.9688 18.7833 22.8667 19.002 22.6479L23.377 18.2729C23.7999 17.85 23.7999 17.15 23.377 16.7271L19.002 12.3521C18.5791 11.9292 17.8791 11.9292 17.4562 12.3521C17.0333 12.775 17.0333 13.475 17.4562 13.8979L19.9645 16.4063H12.3958C11.7978 16.4063 11.302 16.9021 11.302 17.5C11.302 18.0979 11.7978 18.5938 12.3958 18.5938Z" fill="#222222"/>
</svg>
