<svg width="30" height="30" viewBox="0 0 30 30" fill="none" xmlns="http://www.w3.org/2000/svg">
<path d="M16.625 10.1375L18.275 13.4375C18.5 13.8875 19.1 14.3375 19.6 14.4125L22.5875 14.9125C24.5 15.2375 24.95 16.6125 23.575 17.9875L21.25 20.325C20.8625 20.7125 20.6375 21.475 20.7625 22.025L21.425 24.9125C21.95 27.1875 20.7375 28.075 18.725 26.8875L15.925 25.225C15.4125 24.925 14.5875 24.925 14.075 25.225L11.2625 26.875C9.24997 28.0625 8.03747 27.175 8.56247 24.9L9.22497 22.0125C9.34997 21.475 9.12497 20.7125 8.73747 20.3125L6.42497 18C5.04997 16.625 5.49997 15.2375 7.41247 14.925L10.4 14.425C10.9 14.3375 11.5 13.9 11.725 13.45L13.375 10.15C14.2625 8.35003 15.7375 8.35003 16.625 10.1375Z" fill="#222222"/>
<path d="M7.5 12.1875C6.9875 12.1875 6.5625 11.7625 6.5625 11.25V2.5C6.5625 1.9875 6.9875 1.5625 7.5 1.5625C8.0125 1.5625 8.4375 1.9875 8.4375 2.5V11.25C8.4375 11.7625 8.0125 12.1875 7.5 12.1875Z" fill="#222222"/>
<path d="M22.5 12.1875C21.9875 12.1875 21.5625 11.7625 21.5625 11.25V2.5C21.5625 1.9875 21.9875 1.5625 22.5 1.5625C23.0125 1.5625 23.4375 1.9875 23.4375 2.5V11.25C23.4375 11.7625 23.0125 12.1875 22.5 12.1875Z" fill="#222222"/>
<path d="M15 5.9375C14.4875 5.9375 14.0625 5.5125 14.0625 5V2.5C14.0625 1.9875 14.4875 1.5625 15 1.5625C15.5125 1.5625 15.9375 1.9875 15.9375 2.5V5C15.9375 5.5125 15.5125 5.9375 15 5.9375Z" fill="#222222"/>
</svg>
