<svg width="35" height="35" viewBox="0 0 35 35" fill="none" xmlns="http://www.w3.org/2000/svg">
<path d="M12.7603 5.10413V2.91663C12.7603 2.31871 12.2644 1.82288 11.6665 1.82288C11.0686 1.82288 10.5728 2.31871 10.5728 2.91663V5.19163C10.9373 5.14788 11.2728 5.10413 11.6665 5.10413H12.7603Z" fill="#222222"/>
<path d="M24.4272 5.19163V2.91663C24.4272 2.31871 23.9314 1.82288 23.3335 1.82288C22.7356 1.82288 22.2397 2.31871 22.2397 2.91663V5.10413H23.3335C23.7272 5.10413 24.0627 5.14788 24.4272 5.19163Z" fill="#222222"/>
<path d="M24.4271 5.19163V7.29163C24.4271 7.88954 23.9312 8.38538 23.3333 8.38538C22.7354 8.38538 22.2396 7.88954 22.2396 7.29163V5.10413H12.7604V7.29163C12.7604 7.88954 12.2646 8.38538 11.6667 8.38538C11.0688 8.38538 10.5729 7.88954 10.5729 7.29163V5.19163C6.27083 5.58538 4.375 8.35621 4.375 12.3958V24.7916C4.375 29.1666 6.5625 32.0833 11.6667 32.0833H23.3333C28.4375 32.0833 30.625 29.1666 30.625 24.7916V12.3958C30.625 8.35621 28.7292 5.58538 24.4271 5.19163ZM17.5 24.427H11.6667C11.0688 24.427 10.5729 23.9312 10.5729 23.3333C10.5729 22.7354 11.0688 22.2395 11.6667 22.2395H17.5C18.0979 22.2395 18.5938 22.7354 18.5938 23.3333C18.5938 23.9312 18.0979 24.427 17.5 24.427ZM23.3333 17.1354H11.6667C11.0688 17.1354 10.5729 16.6395 10.5729 16.0416C10.5729 15.4437 11.0688 14.9479 11.6667 14.9479H23.3333C23.9312 14.9479 24.4271 15.4437 24.4271 16.0416C24.4271 16.6395 23.9312 17.1354 23.3333 17.1354Z" fill="#222222"/>
</svg>
