<svg width="79" height="79" viewBox="0 0 79 79" fill="none" xmlns="http://www.w3.org/2000/svg">
<path d="M39.4999 6.58331C30.8758 6.58331 23.8645 13.5946 23.8645 22.2187C23.8645 30.6783 30.4808 37.525 39.1049 37.8212C39.3683 37.7883 39.6316 37.7883 39.8291 37.8212C39.8949 37.8212 39.9278 37.8212 39.9937 37.8212C40.0266 37.8212 40.0266 37.8212 40.0595 37.8212C48.4862 37.525 55.1024 30.6783 55.1353 22.2187C55.1353 13.5946 48.1241 6.58331 39.4999 6.58331Z" fill="#222222"/>
<path d="M56.2217 46.5771C47.0379 40.4546 32.0608 40.4546 22.8112 46.5771C18.6308 49.375 16.3267 53.1604 16.3267 57.2092C16.3267 61.2579 18.6308 65.0104 22.7783 67.7754C27.3867 70.8696 33.4433 72.4167 39.5 72.4167C45.5567 72.4167 51.6133 70.8696 56.2217 67.7754C60.3692 64.9775 62.6733 61.225 62.6733 57.1434C62.6404 53.0946 60.3692 49.3421 56.2217 46.5771Z" fill="#222222"/>
</svg>
