<svg width="40" height="40" viewBox="0 0 40 40" fill="none" xmlns="http://www.w3.org/2000/svg">
<path d="M5.0166 18.7V26.1833C5.0166 33.6666 8.0166 36.6666 15.4999 36.6666H24.4833C31.9666 36.6666 34.9666 33.6666 34.9666 26.1833V18.7" stroke="#171717" stroke-width="1.5" stroke-linecap="round" stroke-linejoin="round"/>
<path d="M20 20C23.05 20 25.3 17.5166 25 14.4666L23.9 3.33331H16.1166L15 14.4666C14.7 17.5166 16.95 20 20 20Z" stroke="#171717" stroke-width="1.5" stroke-linecap="round" stroke-linejoin="round"/>
<path d="M30.5166 20C33.8833 20 36.3499 17.2666 36.0166 13.9166L35.5499 9.33331C34.9499 4.99998 33.2833 3.33331 28.9166 3.33331H23.8333L24.9999 15.0166C25.2833 17.7666 27.7666 20 30.5166 20Z" stroke="#171717" stroke-width="1.5" stroke-linecap="round" stroke-linejoin="round"/>
<path d="M9.40005 20C12.15 20 14.6334 17.7666 14.9 15.0166L15.2667 11.3333L16.0667 3.33331H10.9834C6.61672 3.33331 4.95005 4.99998 4.35005 9.33331L3.90005 13.9166C3.56671 17.2666 6.03338 20 9.40005 20Z" stroke="#171717" stroke-width="1.5" stroke-linecap="round" stroke-linejoin="round"/>
<path d="M19.9999 28.3334C17.2166 28.3334 15.8333 29.7167 15.8333 32.5V36.6667H24.1666V32.5C24.1666 29.7167 22.7833 28.3334 19.9999 28.3334Z" stroke="#171717" stroke-width="1.5" stroke-linecap="round" stroke-linejoin="round"/>
</svg>
