<svg width="24" height="24" viewBox="0 0 24 24" fill="none" xmlns="http://www.w3.org/2000/svg">
<path d="M7.79999 22.15C5.14999 22.15 2.98999 20 2.98999 17.34V14.5C2.98999 13.83 3.64999 13.38 4.27999 13.6C4.53999 13.69 4.79999 13.75 5.06999 13.79C5.18999 13.81 5.30999 13.83 5.42999 13.83C5.57999 13.85 5.73999 13.86 5.88999 13.86C6.99999 13.86 8.09999 13.45 8.96999 12.74C9.79999 13.45 10.87 13.86 12.01 13.86C13.15 13.86 14.21 13.47 15.04 12.75C15.9 13.45 16.98 13.86 18.08 13.86C18.25 13.86 18.43 13.85 18.59 13.83C18.71 13.82 18.81 13.81 18.92 13.79C19.22 13.75 19.49 13.67 19.76 13.58C20.38 13.37 21.03 13.83 21.03 14.48V17.34C21.03 19.99 18.88 22.15 16.22 22.15H7.79999Z" fill="#222222"/>
<path d="M21.9801 8.58998L21.7001 5.92998C21.3001 3.02998 19.9801 1.84998 17.1601 1.84998H14.9001H13.4801H10.5601H9.1301H6.8201C4.0001 1.84998 2.6901 3.02998 2.2801 5.95998L2.0201 8.59998C1.9201 9.62998 2.2001 10.63 2.8101 11.41C3.5401 12.36 4.6601 12.9 5.9101 12.9C7.1201 12.9 8.2801 12.29 9.0101 11.32C9.6601 12.29 10.7801 12.9 12.0201 12.9C13.2601 12.9 14.3501 12.32 15.0101 11.36C15.7501 12.31 16.8901 12.9 18.0901 12.9C19.3701 12.9 20.5201 12.33 21.2401 11.33C21.8201 10.56 22.0801 9.58998 21.9801 8.58998ZM13.5001 7.72998H12.7501V8.50998C12.7501 8.92998 12.4101 9.25998 12.0001 9.25998C11.5901 9.25998 11.2501 8.92998 11.2501 8.50998V7.72998H10.5001C10.0901 7.72998 9.7501 7.39998 9.7501 6.97998C9.7501 6.56998 10.0901 6.22998 10.5001 6.22998H11.2501V5.51998C11.2501 5.10998 11.5901 4.76998 12.0001 4.76998C12.4101 4.76998 12.7501 5.10998 12.7501 5.51998V6.22998H13.5001C13.9101 6.22998 14.2501 6.56998 14.2501 6.97998C14.2501 7.39998 13.9101 7.72998 13.5001 7.72998Z" fill="#222222"/>
</svg>
