<svg width="25" height="24" viewBox="0 0 25 24" fill="none" xmlns="http://www.w3.org/2000/svg">
<path d="M18.0156 2H6.01562C4.35563 2 3.01562 3.33 3.01562 4.97V15.88C3.01562 17.52 4.35563 18.85 6.01562 18.85H6.77563C7.57563 18.85 8.33563 19.16 8.89563 19.72L10.6056 21.41C11.3856 22.18 12.6556 22.18 13.4356 21.41L15.1456 19.72C15.7056 19.16 16.4756 18.85 17.2656 18.85H18.0156C19.6756 18.85 21.0156 17.52 21.0156 15.88V4.97C21.0156 3.33 19.6756 2 18.0156 2ZM12.2956 14.96C12.1456 15.01 11.8956 15.01 11.7356 14.96C10.4356 14.51 7.51562 12.66 7.51562 9.51C7.52563 8.12 8.63562 7 10.0156 7C10.8356 7 11.5556 7.39 12.0156 8C12.4756 7.39 13.1956 7 14.0156 7C15.3956 7 16.5156 8.12 16.5156 9.51C16.5056 12.66 13.5956 14.51 12.2956 14.96Z" fill="#222222"/>
</svg>
