<svg width="25" height="24" viewBox="0 0 25 24" fill="none" xmlns="http://www.w3.org/2000/svg">
<path d="M17.3057 4.14004L17.2357 7.93004C17.2257 8.45004 17.5557 9.14004 17.9757 9.45004L20.4557 11.33C22.0457 12.53 21.7857 14 19.8857 14.6L16.6557 15.61C16.1157 15.78 15.5457 16.37 15.4057 16.92L14.6357 19.86C14.0257 22.18 12.5057 22.41 11.2457 20.37L9.48565 17.52C9.16565 17 8.40565 16.61 7.80565 16.64L4.46565 16.81C2.07565 16.93 1.39565 15.55 2.95565 13.73L4.93565 11.43C5.30565 11 5.47565 10.2 5.30565 9.66004L4.28565 6.42004C3.69565 4.52004 4.75565 3.47004 6.64565 4.09004L9.59565 5.06004C10.0957 5.22004 10.8457 5.11004 11.2657 4.80004L14.3457 2.58004C16.0157 1.39004 17.3457 2.09004 17.3057 4.14004Z" fill="#222222"/>
<path d="M21.4556 20.47L18.4256 17.44C18.1356 17.15 17.6556 17.15 17.3656 17.44C17.0756 17.73 17.0756 18.21 17.3656 18.5L20.3956 21.53C20.5456 21.68 20.7356 21.75 20.9256 21.75C21.1156 21.75 21.3056 21.68 21.4556 21.53C21.7456 21.24 21.7456 20.76 21.4556 20.47Z" fill="#222222"/>
</svg>
