<svg width="40" height="40" viewBox="0 0 40 40" fill="none" xmlns="http://www.w3.org/2000/svg">
<circle cx="20" cy="20" r="19.5" fill="#FFCBCB" stroke="#222222"/>
<g clip-path="url(#clip0_75_335)">
<path d="M11.1012 10.7382L11.8887 10.1742C11.9536 10.1274 11.9318 10.025 11.8535 10.0087L10.9047 9.81372C10.8822 9.8087 10.8619 9.79562 10.8482 9.77714L10.2841 8.99006C10.2372 8.92521 10.135 8.94694 10.1185 9.02527L9.92337 9.97372C9.91835 9.99618 9.90511 10.0164 9.88663 10.0301L9.09913 10.5941C9.03425 10.6409 9.05601 10.7433 9.1343 10.7596L10.0831 10.9545C10.1056 10.9594 10.1259 10.9727 10.1396 10.9911L10.7036 11.7781C10.7506 11.8431 10.8528 11.8213 10.8693 11.7429L11.0645 10.7946C11.0695 10.7721 11.0818 10.7519 11.1012 10.7382Z" fill="#222222"/>
<path d="M7.69198 14.5247C7.69574 14.5424 7.69776 14.5604 7.698 14.5784C7.69827 14.5966 7.69669 14.6144 7.69343 14.6323C7.69018 14.6501 7.68517 14.6674 7.67838 14.6842C7.67175 14.7011 7.66341 14.717 7.65353 14.7323C7.64365 14.7475 7.63241 14.7615 7.61972 14.7745C7.60714 14.7874 7.59332 14.799 7.57837 14.8093C7.56346 14.8196 7.54775 14.8282 7.53107 14.8355C7.51437 14.8426 7.4973 14.848 7.47947 14.8518C7.46177 14.8556 7.44384 14.8576 7.4258 14.8578C7.40761 14.858 7.38964 14.8565 7.37193 14.8531C7.35412 14.8499 7.33677 14.8449 7.3199 14.8382C7.30313 14.8314 7.28717 14.8232 7.27195 14.8134C7.25674 14.8035 7.24262 14.7923 7.2297 14.7796C7.21668 14.767 7.20505 14.7532 7.19483 14.7382C7.18461 14.7233 7.1759 14.7076 7.16876 14.6909C7.16151 14.6744 7.15606 14.6572 7.1523 14.6395C7.14854 14.6218 7.14652 14.6038 7.14638 14.5856C7.14614 14.5676 7.14769 14.5496 7.15095 14.5318C7.15423 14.5141 7.15924 14.4968 7.166 14.4799C7.17266 14.4631 7.18099 14.4471 7.19088 14.4319C7.20076 14.4167 7.212 14.4027 7.22456 14.3897C7.23727 14.3768 7.25109 14.3651 7.26601 14.3548C7.28082 14.3446 7.29663 14.3359 7.31334 14.3287C7.32991 14.3216 7.34711 14.3162 7.36481 14.3124C7.38264 14.3086 7.40044 14.3066 7.41861 14.3063C7.43677 14.3061 7.45464 14.3077 7.47245 14.3109C7.49029 14.3143 7.50764 14.3193 7.52438 14.326C7.54128 14.3327 7.55724 14.3409 7.57246 14.3508C7.58767 14.3607 7.60179 14.3719 7.61468 14.3845C7.62773 14.3972 7.63936 14.411 7.64955 14.4258C7.65977 14.4408 7.66851 14.4566 7.67563 14.4731C7.68277 14.4898 7.68822 14.507 7.69198 14.5247Z" fill="#222222"/>
<mask id="mask0_75_335" style="mask-type:luminance" maskUnits="userSpaceOnUse" x="28" y="7" width="3" height="4">
<path d="M28.6995 8.30707L30.403 7.94496L30.7839 9.73703L29.0804 10.0991L28.6995 8.30707Z" fill="white"/>
</mask>
<g mask="url(#mask0_75_335)">
<path d="M30.153 9.23434L30.6332 8.89028C30.6728 8.86144 30.6595 8.79909 30.6118 8.78976L30.0332 8.67075C30.019 8.66798 30.0066 8.65984 29.9993 8.64883L29.6551 8.16883C29.6263 8.12927 29.564 8.14252 29.5546 8.19019L29.4355 8.76868C29.4327 8.78281 29.4246 8.7953 29.4135 8.80247L28.9332 9.14656C28.8937 9.1754 28.9069 9.23774 28.9546 9.24707L29.5333 9.36606C29.5474 9.36886 29.5599 9.37697 29.5671 9.38801L29.9113 9.86801C29.9401 9.90757 30.0024 9.89432 30.0118 9.84664L30.1311 9.26908C30.1341 9.25493 30.1421 9.24247 30.153 9.23434Z" fill="#222222"/>
</g>
<path d="M25.3258 8.14335C25.3306 8.16593 25.3343 8.18874 25.3369 8.21181C25.3394 8.23474 25.3409 8.25789 25.3411 8.28104C25.3415 8.30415 25.3406 8.32726 25.3387 8.35029C25.3367 8.37336 25.3336 8.39625 25.3293 8.41897C25.3251 8.44167 25.3198 8.46419 25.3134 8.48641C25.3069 8.50863 25.2994 8.53051 25.2909 8.55207C25.2822 8.57352 25.2726 8.59461 25.262 8.61507C25.2514 8.63557 25.2397 8.65557 25.2271 8.67495C25.2146 8.69446 25.201 8.71322 25.1865 8.73121C25.1721 8.74932 25.1568 8.76666 25.1407 8.7832C25.1245 8.79976 25.1075 8.81551 25.0898 8.83045C25.0722 8.84538 25.0538 8.85938 25.0347 8.8724C25.0156 8.88558 24.9959 8.89776 24.9756 8.90884C24.9554 8.92005 24.9346 8.93025 24.9134 8.93933C24.892 8.94856 24.8704 8.95661 24.8484 8.96363C24.8263 8.97054 24.8039 8.97653 24.7812 8.98136C24.7586 8.98616 24.7358 8.98977 24.7128 8.99246C24.6898 8.99499 24.6667 8.99646 24.6435 8.99668C24.6204 8.99704 24.5973 8.99616 24.5742 8.99416C24.5512 8.99229 24.5283 8.98915 24.5055 8.98503C24.4828 8.98074 24.4602 8.97545 24.438 8.96899C24.4158 8.96254 24.3939 8.95504 24.3724 8.94651C24.3509 8.93795 24.3299 8.92835 24.3094 8.91766C24.2888 8.90713 24.2688 8.8955 24.2494 8.88279C24.23 8.8702 24.2112 8.85666 24.1931 8.84228C24.175 8.82791 24.1577 8.81254 24.1411 8.79645C24.1246 8.78023 24.1088 8.76329 24.0939 8.74562C24.0789 8.72795 24.065 8.70953 24.0518 8.69051C24.0388 8.67147 24.0266 8.65183 24.0154 8.63157C24.0043 8.61129 23.9941 8.59054 23.985 8.56928C23.9758 8.54804 23.9678 8.52629 23.9607 8.50431C23.9537 8.48221 23.9478 8.45984 23.943 8.43726C23.9382 8.41467 23.9345 8.39186 23.9319 8.3688C23.9294 8.34587 23.9279 8.32271 23.9277 8.29957C23.9273 8.27645 23.9282 8.25335 23.9301 8.23031C23.9321 8.20725 23.9352 8.18435 23.9394 8.16166C23.9437 8.13894 23.949 8.11642 23.9554 8.0942C23.9619 8.07198 23.9694 8.05009 23.9779 8.02867C23.9865 8.00712 23.9961 7.98616 24.0068 7.96553C24.0175 7.94504 24.0291 7.92504 24.0417 7.90566C24.0542 7.88628 24.0678 7.86752 24.0823 7.84939C24.0967 7.83129 24.112 7.81394 24.1281 7.79741C24.1443 7.78085 24.1613 7.7651 24.179 7.75016C24.1966 7.73522 24.2151 7.72123 24.2341 7.70821C24.2532 7.69503 24.2729 7.68285 24.2932 7.67177C24.3134 7.66056 24.3342 7.65035 24.3554 7.64128C24.3767 7.6322 24.3984 7.624 24.4204 7.61711C24.4425 7.61006 24.4649 7.60407 24.4874 7.59927C24.5102 7.59445 24.533 7.59083 24.5561 7.58828C24.579 7.58562 24.602 7.58431 24.6253 7.58392C24.6484 7.58356 24.6715 7.58445 24.6946 7.58645C24.7176 7.58832 24.7405 7.59146 24.7633 7.59571C24.786 7.59986 24.8086 7.60515 24.8308 7.61161C24.853 7.61807 24.8749 7.62557 24.8964 7.6341C24.9179 7.64266 24.9389 7.65226 24.9594 7.66295C24.9801 7.67361 25.0001 7.68524 25.0194 7.69782C25.0388 7.71041 25.0576 7.72395 25.0757 7.73833C25.0937 7.75286 25.1111 7.76806 25.1277 7.78428C25.1442 7.80037 25.16 7.81732 25.1749 7.83499C25.1899 7.85266 25.2038 7.87108 25.2169 7.89012C25.23 7.90914 25.2422 7.92878 25.2534 7.94903C25.2645 7.96932 25.2747 7.99007 25.2838 8.01133C25.293 8.03256 25.3011 8.05432 25.3081 8.07629C25.3151 8.0984 25.321 8.12076 25.3258 8.14335Z" fill="#222222"/>
<path d="M25.8793 10.2905L20.0628 11.5268L19.1295 7.1362C19.0015 6.53365 18.4069 6.14774 17.8039 6.2759L16.4826 6.55676C15.8797 6.68492 15.4934 7.27931 15.6215 7.88186L16.555 12.2734L10.7384 13.5097C9.54639 13.7631 8.78185 14.9385 9.03528 16.1308L9.1713 16.7707C9.29761 17.3649 9.8842 17.7456 10.4788 17.6192L10.8222 17.5462L16.1436 33.0321C16.4242 33.8492 17.2743 34.3304 18.1202 34.1506L27.5314 32.1502C28.3772 31.9704 28.9581 31.185 28.8821 30.3244L27.4448 14.013L27.7882 13.94C28.3828 13.8136 28.7638 13.2272 28.6375 12.633L28.5015 11.9931C28.2471 10.801 27.0714 10.0371 25.8793 10.2905ZM16.3194 7.73352C16.2724 7.51228 16.4094 7.30136 16.6309 7.25428L17.9522 6.97342C18.1737 6.92634 18.3846 7.06331 18.4316 7.28455L19.3651 11.6761L17.2529 12.125L16.3194 7.73352ZM27.3251 21.0818C27.3388 21.494 27.1431 21.868 26.8166 22.1123C25.3959 23.1055 23.6469 23.2779 21.625 22.6375C23.1427 20.6586 24.6914 19.718 26.2353 19.871C26.8621 19.9331 27.3043 20.4671 27.3251 21.0818ZM20.8913 22.425C20.3596 22.2756 19.8506 22.1642 19.3718 22.0939L18.0776 16.005L20.1898 15.5561L21.4886 21.6662C21.2885 21.9004 21.0891 22.1566 20.8913 22.425ZM18.6253 22.0134C16.01 21.8209 14.302 22.703 13.5315 23.237L11.5248 17.3969L17.3785 16.1527L18.6243 22.0136L18.6253 22.0134ZM28.1721 30.3878C28.2167 30.8906 27.8774 31.3486 27.3842 31.4534L17.9721 33.454C17.4789 33.5589 16.9827 33.2785 16.8189 32.801L13.7697 23.9281C14.3978 23.4466 16.8082 21.9291 20.9396 23.174C21.0499 23.203 21.1614 23.2386 21.274 23.2788C22.8349 23.7956 24.1233 23.8124 25.157 23.5926C26.0317 23.4067 26.7236 23.0517 27.2439 22.6855C27.3308 22.6232 27.3998 22.5453 27.4736 22.4714L28.1721 30.3878ZM27.2141 19.521C26.9494 19.3324 26.646 19.1956 26.3063 19.1619C24.8608 19.0191 23.4461 19.6424 22.0795 21.0148L20.8875 15.4068L26.7413 14.1625L27.2141 19.521ZM27.9387 12.7816C27.9833 12.9917 27.8493 13.198 27.639 13.2427L10.3306 16.9217C10.1203 16.9664 9.91368 16.8316 9.86921 16.6223L9.73319 15.9824C9.5616 15.1751 10.0789 14.379 10.8867 14.2073L26.0269 10.9891C26.8345 10.8174 27.6311 11.3344 27.8027 12.1416L27.9387 12.7816Z" fill="#222222"/>
<path d="M17.5268 25.3652C16.7154 25.5377 16.1958 26.3373 16.3682 27.1482C16.5404 27.9583 17.3403 28.4774 18.1516 28.3049C18.9621 28.1327 19.4817 27.3331 19.3095 26.523C19.1371 25.7121 18.3372 25.193 17.5268 25.3652ZM18.0032 27.6065C17.5771 27.6971 17.1562 27.424 17.0659 26.999C16.9754 26.573 17.2487 26.1524 17.6748 26.0618C18.1011 25.9712 18.521 26.2445 18.6115 26.6704C18.702 27.0964 18.4285 27.5161 18.0032 27.6065Z" fill="#222222"/>
<path d="M24.7121 25.0091C23.9007 25.1815 23.3811 25.9813 23.5533 26.7913C23.7257 27.6023 24.5256 28.1214 25.337 27.9489C26.1475 27.7766 26.6671 26.9771 26.4947 26.1661C26.3226 25.356 25.5226 24.8368 24.7121 25.0091ZM25.1887 27.2514C24.7626 27.342 24.3418 27.0689 24.2512 26.643C24.1607 26.217 24.4342 25.7972 24.8603 25.7066C25.2866 25.616 25.7065 25.8894 25.7968 26.3144C25.8874 26.7404 25.614 27.161 25.1887 27.2514Z" fill="#222222"/>
<path d="M21.2795 27.8762C20.4691 28.0485 19.9495 28.8481 20.1217 29.6581C20.2938 30.4682 21.0938 30.9874 21.9042 30.8151C22.7148 30.6428 23.2342 29.8432 23.062 29.0331C22.8898 28.2231 22.0901 27.7039 21.2795 27.8762ZM21.7561 30.1185C21.33 30.2091 20.9101 29.9357 20.8198 29.5107C20.7294 29.0858 21.0028 28.665 21.428 28.5747C21.8533 28.4843 22.2741 28.7575 22.3644 29.1824C22.4548 29.6074 22.1814 30.0281 21.7561 30.1185Z" fill="#222222"/>
<path d="M30.2659 9.19127L30.9004 8.77164C30.9527 8.73673 30.937 8.66333 30.8751 8.65271L30.1248 8.52743C30.107 8.5242 30.0911 8.51506 30.0805 8.50191L29.6453 7.94314C29.6092 7.89711 29.5276 7.91446 29.5132 7.97121L29.3428 8.65871C29.3387 8.675 29.3277 8.68983 29.3129 8.69999L28.6784 9.11962C28.6261 9.15453 28.6417 9.22793 28.7037 9.23856L29.454 9.36384C29.4717 9.3671 29.4877 9.3762 29.4981 9.38939L29.9334 9.94816C29.9696 9.99429 30.0513 9.97694 30.0655 9.92008L30.2358 9.23259C30.2401 9.21626 30.2503 9.20161 30.2659 9.19127Z" fill="#222222"/>
</g>
<defs>
<clipPath id="clip0_75_335">
<rect width="28" height="28" fill="white" transform="translate(4 8.82153) rotate(-12)"/>
</clipPath>
</defs>
</svg>
