<svg width="20" height="20" viewBox="0 0 20 20" fill="none" xmlns="http://www.w3.org/2000/svg">
<path d="M10.3079 7.52067C10.8698 8.3905 11.6116 9.13223 12.4814 9.69421C12.7066 9.83987 12.7066 10.1632 12.4814 10.3089C11.6116 10.8709 10.8698 11.6126 10.3079 12.4824C10.1622 12.7076 9.83883 12.7076 9.69317 12.4824C9.13119 11.6126 8.38947 10.8709 7.51964 10.3089C7.29443 10.1632 7.29443 9.83987 7.51964 9.69421C8.38947 9.13223 9.13119 8.3905 9.69317 7.52067C9.83883 7.29546 10.1622 7.29546 10.3079 7.52067ZM10 0L8.98347 4.73347C8.52583 6.8626 6.86262 8.52582 4.73348 8.98347L0 10L4.73348 11.0165C6.86262 11.4742 8.52583 13.1374 8.98347 15.2665L10 20L11.0165 15.2665C11.4742 13.1374 13.1374 11.4742 15.2665 11.0165L20 10L15.2665 8.98347C13.1374 8.52582 11.4742 6.8626 11.0165 4.73347L10 0Z" fill="#222222"/>
</svg>
