<svg width="27" height="27" viewBox="0 0 27 27" fill="none" xmlns="http://www.w3.org/2000/svg">
<path d="M24.75 5.45626V18.8325C24.75 19.9238 23.8612 20.925 22.77 21.06L22.4213 21.105C20.5763 21.3525 17.9775 22.1175 15.885 22.995C15.1537 23.2988 14.3438 22.7475 14.3438 21.9488V6.30001C14.3438 5.88376 14.58 5.50126 14.9512 5.29876C17.01 4.18501 20.1263 3.19501 22.2413 3.01501H22.3088C23.6587 3.01501 24.75 4.10626 24.75 5.45626Z" fill="#222222"/>
<path d="M12.0488 5.29876C9.99002 4.18501 6.87377 3.19501 4.75877 3.01501H4.68002C3.33002 3.01501 2.23877 4.10626 2.23877 5.45626V18.8325C2.23877 19.9238 3.12752 20.925 4.21877 21.06L4.56752 21.105C6.41252 21.3525 9.01127 22.1175 11.1038 22.995C11.835 23.2988 12.645 22.7475 12.645 21.9488V6.30001C12.645 5.87251 12.42 5.50126 12.0488 5.29876ZM5.62502 8.70751H8.15627C8.61752 8.70751 9.00002 9.09001 9.00002 9.55126C9.00002 10.0238 8.61752 10.395 8.15627 10.395H5.62502C5.16377 10.395 4.78127 10.0238 4.78127 9.55126C4.78127 9.09001 5.16377 8.70751 5.62502 8.70751ZM9.00002 13.77H5.62502C5.16377 13.77 4.78127 13.3988 4.78127 12.9263C4.78127 12.465 5.16377 12.0825 5.62502 12.0825H9.00002C9.46127 12.0825 9.84377 12.465 9.84377 12.9263C9.84377 13.3988 9.46127 13.77 9.00002 13.77Z" fill="#222222"/>
</svg>
