<svg width="27" height="27" viewBox="0 0 27 27" fill="none" xmlns="http://www.w3.org/2000/svg">
<path d="M11.25 17.4375C10.7887 17.4375 10.4062 17.82 10.4062 18.2812V19.9688C10.4062 20.43 10.7887 20.8125 11.25 20.8125C11.7112 20.8125 12.0938 20.43 12.0938 19.9688V18.2812C12.0938 17.82 11.7112 17.4375 11.25 17.4375Z" fill="#222222"/>
<path d="M24.75 23.9063H23.625V11.2276C23.625 10.5301 23.31 9.87756 22.7587 9.45006L14.8837 3.33006C14.0737 2.68881 12.9263 2.68881 12.1163 3.33006L4.24125 9.45006C3.69 9.87756 3.375 10.5301 3.375 11.2163L3.31875 23.9063H2.25C1.78875 23.9063 1.40625 24.2776 1.40625 24.7501C1.40625 25.2113 1.78875 25.5938 2.25 25.5938H24.75C25.2113 25.5938 25.5938 25.2113 25.5938 24.7501C25.5938 24.2776 25.2113 23.9063 24.75 23.9063ZM11.8125 7.59381H15.1875C15.6488 7.59381 16.0312 7.97631 16.0312 8.43756C16.0312 8.89881 15.6488 9.28131 15.1875 9.28131H11.8125C11.3512 9.28131 10.9688 8.89881 10.9688 8.43756C10.9688 7.97631 11.3512 7.59381 11.8125 7.59381ZM19.125 23.9063H7.875V14.0626C7.875 13.1288 8.62875 12.3751 9.5625 12.3751H17.4375C18.3713 12.3751 19.125 13.1288 19.125 14.0626V23.9063Z" fill="#222222"/>
</svg>
