<svg width="27" height="27" viewBox="0 0 27 27" fill="none" xmlns="http://www.w3.org/2000/svg">
<path d="M25.1551 9.30375L24.8288 6.1875C24.3563 2.79 22.8151 1.40625 19.5188 1.40625H16.8638H15.1988H11.7788H10.1138H7.41385C4.10634 1.40625 2.57634 2.79 2.09259 6.22125L1.78884 9.315C1.67634 10.5188 2.00259 11.6887 2.71134 12.6C3.56634 13.7137 4.88259 14.3438 6.34509 14.3438C7.7626 14.3438 9.12385 13.635 9.97885 12.4987C10.7438 13.635 12.0488 14.3438 13.5001 14.3438C14.9513 14.3438 16.2226 13.6687 16.9988 12.5437C17.8651 13.6575 19.2038 14.3438 20.5988 14.3438C22.0951 14.3438 23.4451 13.68 24.2888 12.51C24.9638 11.61 25.2676 10.4738 25.1551 9.30375Z" fill="#222222"/>
<path d="M12.7688 18.7425C11.34 18.8888 10.26 20.1038 10.26 21.5438V24.6263C10.26 24.93 10.5075 25.1775 10.8113 25.1775H16.1775C16.4813 25.1775 16.7288 24.93 16.7288 24.6263V21.9375C16.74 19.5863 15.3563 18.4725 12.7688 18.7425Z" fill="#222222"/>
<path d="M24.0412 16.2V19.5525C24.0412 22.6575 21.5212 25.1775 18.4162 25.1775C18.1125 25.1775 17.865 24.93 17.865 24.6262V21.9375C17.865 20.4975 17.4262 19.3725 16.5712 18.6075C15.8175 17.9212 14.7937 17.5837 13.5225 17.5837C13.2412 17.5837 12.96 17.595 12.6562 17.6287C10.6537 17.8312 9.13499 19.5187 9.13499 21.5437V24.6262C9.13499 24.93 8.88749 25.1775 8.58374 25.1775C5.47874 25.1775 2.95874 22.6575 2.95874 19.5525V16.2225C2.95874 15.435 3.73499 14.9062 4.46624 15.165C4.76999 15.2662 5.07374 15.345 5.38874 15.39C5.52374 15.4125 5.66999 15.435 5.80499 15.435C5.98499 15.4575 6.16499 15.4687 6.34499 15.4687C7.64999 15.4687 8.93249 14.985 9.94499 14.1525C10.9125 14.985 12.1725 15.4687 13.5 15.4687C14.8387 15.4687 16.0762 15.0075 17.0437 14.175C18.0562 14.9962 19.3162 15.4687 20.5987 15.4687C20.8012 15.4687 21.0037 15.4575 21.195 15.435C21.33 15.4237 21.4537 15.4125 21.5775 15.39C21.9262 15.345 22.2412 15.2437 22.5562 15.1425C23.2875 14.895 24.0412 15.435 24.0412 16.2Z" fill="#222222"/>
</svg>
